<mxfile host="65bd71144e">
    <diagram id="qPccjKZHjvJL7jCKu4e7" name="Page-1">
        <mxGraphModel dx="774" dy="437" grid="0" gridSize="10" guides="0" tooltips="1" connect="0" arrows="0" fold="1" page="1" pageScale="1" pageWidth="850" pageHeight="1100" background="none" math="0" shadow="0">
            <root>
                <mxCell id="0"/>
                <mxCell id="1" parent="0"/>
                <mxCell id="2" value="Text" style="text;html=1;align=right;verticalAlign=middle;whiteSpace=wrap;rounded=0;strokeColor=none;" vertex="1" parent="1">
                    <mxGeometry x="210" y="70" width="60" height="30" as="geometry"/>
                </mxCell>
                <mxCell id="3" value="" style="ellipse;whiteSpace=wrap;html=1;fillColor=#6A2D7B;strokeColor=#99FFCC;" vertex="1" parent="1">
                    <mxGeometry x="313" y="93" width="120" height="80" as="geometry"/>
                </mxCell>
            </root>
        </mxGraphModel>
    </diagram>
</mxfile>